<svg xmlns="http://www.w3.org/2000/svg" width="15" height="16" viewBox="0 0 15 16"><g><g opacity="-1"><path fill="#161418" d="M11.736.646a.644.644 0 0 1 .895-.08l1.726 1.416c.27.22.306.615.08.88a.638.638 0 0 1-.894.08l-1.726-1.416a.618.618 0 0 1-.081-.88zM.562 2.862a.618.618 0 0 1 .08-.88L2.37.566c.27-.22.67-.185.895.08a.618.618 0 0 1-.081.88L1.457 2.942a.638.638 0 0 1-.895-.08zM15 8.624c0 1.242-.32 2.47-.926 3.552a.641.641 0 0 1-.863.246.62.62 0 0 1-.25-.85 6.05 6.05 0 0 0 .768-2.948c0-3.377-2.795-6.125-6.23-6.125-3.434 0-6.228 2.748-6.228 6.125s2.794 6.125 6.229 6.125c1.34 0 2.616-.411 3.69-1.19a.643.643 0 0 1 .89.132.619.619 0 0 1-.135.874A7.527 7.527 0 0 1 7.5 16a7.516 7.516 0 0 1-5.303-2.16A7.266 7.266 0 0 1 0 8.624c0-1.97.78-3.822 2.197-5.215a7.495 7.495 0 0 1 4.667-2.133V.624A.63.63 0 0 1 7.5 0a.63.63 0 0 1 .635.625v.652a7.495 7.495 0 0 1 4.668 2.133A7.265 7.265 0 0 1 15 8.624zM10.69 5.74L8.686 8.176c.055.14.085.29.085.448 0 .69-.57 1.25-1.271 1.25s-1.271-.56-1.271-1.25a1.262 1.262 0 0 1 1.47-1.234l2.003-2.436a.643.643 0 0 1 .894-.092c.273.217.315.61.094.879z"/></g></g></svg>