<?xml version="1.0" encoding="iso-8859-1"?>
<!-- Generator: Adobe Illustrator 19.0.0, SVG Export Plug-In . SVG Version: 6.00 Build 0)  -->
<svg version="1.1" id="Capa_1" xmlns="http://www.w3.org/2000/svg" xmlns:xlink="http://www.w3.org/1999/xlink" x="0px" y="0px"
	 viewBox="0 0 333.2 333.2" style="enable-background:new 0 0 333.2 333.2;" xml:space="preserve">
<g>
	<path style="fill:#4A566E;" d="M15.2,26.2H318c8.4,0,15.2,6.8,15.2,15.2v194.8c0,8.4-6.8,15.2-15.2,15.2H15.2
		c-8.4,0-15.2-6.8-15.2-15.2V41C0,33,6.8,26.2,15.2,26.2z"/>
	<path style="fill:#FFFFFF;" d="M41.6,52.6h249.6c8,0,14.8,6.4,14.8,14.8v109.2c0,8-6.4,14.8-14.8,14.8H41.6
		c-8,0-14.8-6.4-14.8-14.8V67C26.8,59,33.6,52.6,41.6,52.6z"/>
	<path style="fill:#4A566E;" d="M113.2,284.6h109.2c6.4,0,11.2,5.2,11.2,11.2l0,0c0,6.4-5.2,11.2-11.2,11.2H113.2
		c-6.4,0-11.2-5.2-11.2-11.2l0,0C102,289.4,107.2,284.6,113.2,284.6z"/>
</g>
<g>
	<rect y="208.2" style="fill:#3ABFC8;" width="332.8" height="15.6"/>
	<rect x="125.2" y="251" style="fill:#3ABFC8;" width="85.6" height="33.6"/>
</g>
<g>
</g>
<g>
</g>
<g>
</g>
<g>
</g>
<g>
</g>
<g>
</g>
<g>
</g>
<g>
</g>
<g>
</g>
<g>
</g>
<g>
</g>
<g>
</g>
<g>
</g>
<g>
</g>
<g>
</g>
</svg>
